<?xml version="1.0" standalone="no"?>
<!DOCTYPE svg PUBLIC "-//W3C//DTD SVG 20010904//EN"
 "http://www.w3.org/TR/2001/REC-SVG-20010904/DTD/svg10.dtd">
<svg version="1.0" xmlns="http://www.w3.org/2000/svg"
 width="1000.000000pt" height="1000.000000pt" viewBox="0 0 1000.000000 1000.000000"
 preserveAspectRatio="xMidYMid meet">

<g transform="translate(0.000000,1000.000000) scale(0.100000,-0.100000)"
fill="#000000" stroke="none">
<path d="M4680 8989 c-600 -48 -1226 -248 -1735 -554 -457 -275 -893 -678
-1206 -1116 -599 -837 -850 -1893 -693 -2919 44 -289 109 -541 204 -796 460
-1226 1489 -2150 2762 -2478 368 -95 811 -139 1176 -117 403 24 700 78 1037
188 206 67 350 125 530 214 645 317 1188 794 1580 1389 580 879 789 1948 584
2985 -306 1548 -1504 2772 -3054 3120 -368 83 -807 114 -1185 84z m566 -360
c611 -40 1229 -247 1739 -582 819 -538 1393 -1389 1579 -2337 52 -267 61 -373
61 -715 -1 -334 -8 -424 -56 -675 -260 -1363 -1292 -2473 -2631 -2830 -340
-90 -541 -115 -933 -115 -314 0 -383 5 -628 46 -1031 172 -1941 797 -2498
1714 -90 148 -210 396 -279 575 -290 754 -314 1627 -64 2401 300 932 971 1713
1839 2143 589 292 1221 418 1871 375z"/>
<path d="M4676 8459 c-626 -55 -1263 -301 -1763 -680 -429 -326 -770 -731
-1006 -1197 -283 -558 -401 -1108 -375 -1750 18 -455 128 -894 332 -1326 351
-745 1001 -1372 1751 -1689 332 -140 598 -213 935 -259 135 -18 216 -22 440
-22 348 -1 554 23 860 100 769 193 1450 648 1930 1289 365 488 581 1027 667
1660 24 181 24 655 0 840 -111 836 -485 1562 -1096 2129 -554 514 -1258 829
-2020 906 -117 11 -521 11 -655 -1z m559 -909 c437 -41 863 -196 1224 -448
254 -177 483 -411 665 -681 551 -815 575 -1899 61 -2746 -489 -806 -1383
-1278 -2317 -1225 -252 15 -406 41 -618 106 -306 95 -571 232 -830 432 -119
91 -371 347 -461 467 -558 745 -673 1711 -307 2565 199 465 552 875 993 1155
218 138 559 274 825 330 240 50 525 67 765 45z"/>
<path d="M4843 7392 c-60 -3 -64 -5 -96 -45 -155 -191 -366 -551 -487 -830
-59 -137 -134 -337 -128 -343 16 -15 611 -73 761 -74 l27 0 0 644 c0 355 -3
646 -7 648 -5 2 -36 2 -70 0z"/>
<path d="M5080 6750 l0 -653 178 6 c165 6 545 41 585 53 9 3 17 9 17 13 0 4
-20 61 -44 127 -132 356 -326 721 -540 1012 -52 71 -64 82 -91 82 -16 0 -47 3
-67 6 l-38 7 0 -653z"/>
<path d="M5450 7355 c0 -2 33 -55 74 -117 192 -296 396 -714 482 -990 11 -37
23 -58 32 -58 31 0 336 72 467 110 179 53 405 131 405 141 0 16 -149 185 -241
275 -325 316 -711 525 -1156 628 -35 8 -63 13 -63 11z"/>
<path d="M4395 7320 c-328 -85 -664 -258 -924 -473 -110 -90 -250 -230 -329
-329 l-63 -77 38 -16 c123 -52 837 -239 848 -223 1 2 16 46 35 98 105 302 285
663 470 940 76 115 74 110 53 110 -10 -1 -67 -14 -128 -30z"/>
<path d="M2947 6243 c-186 -309 -306 -679 -336 -1038 -5 -60 -7 -113 -4 -117
2 -5 265 -8 584 -8 l579 0 0 65 c0 160 55 535 111 757 16 64 29 123 29 131 0
9 -15 17 -42 21 -155 24 -577 137 -771 206 -61 22 -112 40 -113 40 -1 0 -18
-26 -37 -57z"/>
<path d="M6935 6274 c-165 -68 -640 -204 -803 -230 -24 -4 -46 -12 -48 -19 -3
-7 8 -68 25 -136 42 -179 78 -394 91 -549 6 -74 13 -163 16 -197 l6 -63 584 0
584 0 0 48 c0 53 -23 247 -40 332 -16 86 -67 271 -96 352 -63 175 -223 489
-248 488 -6 -1 -38 -12 -71 -26z"/>
<path d="M4070 5985 c-62 -195 -114 -506 -136 -813 l-6 -92 493 2 494 3 3 426
2 426 -142 7 c-171 8 -414 31 -578 54 l-120 18 -10 -31z"/>
<path d="M5805 5989 c-105 -18 -367 -40 -542 -46 l-183 -6 0 -429 0 -428 485
0 485 0 0 75 c0 167 -47 488 -108 730 -27 109 -27 110 -57 112 -16 0 -52 -3
-80 -8z"/>
<path d="M2610 4857 c0 -73 22 -249 44 -355 42 -196 114 -396 210 -586 87
-171 133 -239 154 -231 110 43 564 158 787 199 89 17 120 26 118 37 -1 8 -20
86 -42 174 -63 250 -111 574 -111 755 l0 70 -580 0 -580 0 0 -63z"/>
<path d="M3934 4803 c10 -163 32 -335 62 -483 28 -139 81 -349 94 -370 7 -11
31 -11 142 3 129 16 391 39 591 53 l97 6 0 454 0 454 -496 0 -497 0 7 -117z"/>
<path d="M5080 4465 l0 -455 113 0 c128 0 323 -13 546 -36 93 -10 157 -12 162
-7 15 15 78 275 104 428 22 132 37 269 49 448 l6 77 -490 0 -490 0 0 -455z"/>
<path d="M6220 4893 c0 -186 -52 -552 -111 -792 -22 -90 -39 -165 -37 -166 2
-2 83 -20 182 -40 208 -43 418 -99 602 -161 73 -24 136 -44 140 -44 13 0 109
166 171 297 120 253 223 663 223 891 l0 42 -585 0 -585 0 0 -27z"/>
<path d="M5080 3230 l0 -620 48 1 c26 1 57 4 69 7 47 15 269 358 435 672 78
148 226 496 215 506 -14 14 -561 53 -754 54 -10 0 -13 -131 -13 -620z"/>
<path d="M4690 3833 c-303 -23 -540 -50 -540 -63 0 -19 97 -246 161 -380 78
-162 168 -321 274 -485 83 -129 181 -265 203 -282 9 -7 42 -13 74 -13 l58 0 0
615 0 615 -92 -2 c-51 -1 -113 -3 -138 -5z"/>
<path d="M5985 3693 c-99 -283 -259 -599 -457 -903 -48 -74 -83 -136 -78 -138
15 -6 272 65 375 103 364 134 701 362 950 642 47 52 94 108 105 123 l21 29
-128 41 c-220 71 -668 180 -739 180 -18 0 -26 -14 -49 -77z"/>
<path d="M3900 3739 c-304 -62 -522 -115 -718 -175 l-83 -25 42 -52 c82 -100
315 -323 419 -401 256 -190 545 -329 850 -405 67 -17 128 -31 136 -31 8 0 -20
51 -65 118 -165 249 -347 591 -435 817 -22 55 -45 115 -52 133 -14 35 -20 36
-94 21z"/>
</g>
</svg>
